<svg width="22" height="18" viewBox="0 0 22 18" fill="none" xmlns="http://www.w3.org/2000/svg">
<path d="M21.162 2.65593C20.3986 2.99362 19.589 3.2154 18.76 3.31393C19.6338 2.79136 20.2877 1.96894 20.6 0.999927C19.78 1.48793 18.881 1.82993 17.944 2.01493C17.3146 1.34151 16.4804 0.89489 15.571 0.744511C14.6616 0.594133 13.7279 0.748418 12.9153 1.18338C12.1026 1.61834 11.4564 2.30961 11.0771 3.14972C10.6978 3.98983 10.6068 4.93171 10.818 5.82893C9.15512 5.74558 7.52834 5.31345 6.04329 4.56059C4.55825 3.80773 3.24813 2.75097 2.19801 1.45893C1.8263 2.09738 1.63096 2.82315 1.63201 3.56193C1.63201 5.01193 2.37001 6.29293 3.49201 7.04293C2.82802 7.02202 2.17864 6.84271 1.59801 6.51993V6.57193C1.59821 7.53763 1.93238 8.47354 2.54385 9.22099C3.15533 9.96843 4.00649 10.4814 4.95301 10.6729C4.33662 10.84 3.69031 10.8646 3.06301 10.7449C3.32987 11.5762 3.85001 12.3031 4.5506 12.824C5.25118 13.3449 6.09714 13.6337 6.97001 13.6499C6.10249 14.3313 5.10918 14.8349 4.04689 15.1321C2.98459 15.4293 1.87413 15.5142 0.779007 15.3819C2.6907 16.6114 4.9161 17.264 7.18901 17.2619C14.882 17.2619 19.089 10.8889 19.089 5.36193C19.089 5.18193 19.084 4.99993 19.076 4.82193C19.8949 4.23009 20.6016 3.49695 21.163 2.65693L21.162 2.65593Z" fill="white"/>
</svg>
